<?xml version="1.0" standalone="no"?>
<!DOCTYPE svg PUBLIC "-//W3C//DTD SVG 20010904//EN"
 "http://www.w3.org/TR/2001/REC-SVG-20010904/DTD/svg10.dtd">
<svg version="1.0" xmlns="http://www.w3.org/2000/svg"
 width="512.000000pt" height="512.000000pt" viewBox="0 0 512.000000 512.000000"
 preserveAspectRatio="xMidYMid meet">

<g transform="translate(0.000000,512.000000) scale(0.100000,-0.100000)"
fill="#000000" stroke="none">
<path d="M3630 4640 l0 -320 -547 0 c-352 0 -562 -4 -586 -11 -49 -13 -105
-63 -128 -114 -16 -35 -19 -69 -19 -277 l0 -238 210 0 210 0 0 105 0 104 563
3 562 3 45 25 c24 14 58 45 75 68 l30 44 3 464 3 464 -211 0 -210 0 0 -320z"/>
<path d="M1166 3460 c-540 -50 -991 -434 -1126 -960 -62 -244 -48 -490 55
-949 66 -297 233 -887 280 -989 63 -137 186 -263 320 -327 120 -57 176 -70
315 -69 106 1 137 5 203 26 189 63 352 205 427 373 50 113 61 172 67 368 l6
187 847 0 847 0 7 -165 c3 -91 14 -199 22 -241 51 -245 229 -442 471 -522 66
-21 97 -25 198 -26 179 0 294 38 438 145 129 97 199 212 268 439 174 580 289
1091 305 1360 35 575 -324 1106 -874 1290 -199 67 -116 63 -1622 66 -751 1
-1405 -2 -1454 -6z m324 -845 l0 -215 215 0 215 0 0 -215 0 -215 -215 0 -215
0 0 -210 0 -210 -210 0 -210 0 0 210 0 210 -215 0 -215 0 0 215 0 215 215 0
215 0 0 215 0 215 210 0 210 0 0 -215z m2455 181 c122 -66 141 -244 35 -340
-144 -130 -364 -16 -348 179 13 152 175 236 313 161z m-450 -415 c99 -46 146
-139 123 -245 -15 -69 -85 -139 -154 -154 -174 -38 -315 130 -243 288 27 60
45 79 104 106 60 29 116 30 170 5z m855 -2 c60 -27 79 -45 106 -104 29 -60 30
-116 5 -170 -46 -99 -139 -146 -245 -123 -69 15 -139 85 -154 154 -38 174 130
315 288 243z m-397 -441 c22 -14 51 -43 65 -65 23 -33 27 -48 27 -113 0 -65
-4 -80 -27 -113 -14 -22 -43 -51 -65 -65 -33 -23 -48 -27 -113 -27 -65 0 -80
4 -113 27 -61 41 -91 93 -95 164 -6 92 36 165 120 208 51 26 152 18 201 -16z"/>
<path d="M1920 800 l0 -110 213 2 212 3 0 105 0 105 -212 3 -213 2 0 -110z"/>
<path d="M2774 897 c-3 -8 -3 -56 -2 -108 l3 -94 213 -3 212 -2 0 110 0 110
-210 0 c-166 0 -212 -3 -216 -13z"/>
</g>
</svg>
