<svg version="1.1" id="Layer_1" xmlns="http://www.w3.org/2000/svg" xmlns:xlink="http://www.w3.org/1999/xlink" x="0px" y="0px"
	 width="100%" viewBox="0 0 97 135" enable-background="new 0 0 97 135" xml:space="preserve">
<path fill="#222220" opacity="1.000000" stroke="none" 
	d="
M53.000000,136.000000 
	C36.350769,136.000000 20.201214,135.949738 4.052674,136.055328 
	C1.688850,136.070770 0.919674,135.693634 0.926074,133.058594 
	C1.030385,90.105232 1.037619,47.151436 0.915652,4.198164 
	C0.907491,1.324051 1.626011,0.918196 4.295335,0.928233 
	C34.429035,1.041529 64.563477,1.040642 94.697189,0.929386 
	C97.350899,0.919588 98.093620,1.300509 98.085312,4.190686 
	C97.961761,47.143948 97.970345,90.097748 98.072632,133.051132 
	C98.078857,135.667526 97.337364,136.077667 94.954681,136.057404 
	C81.137291,135.939957 67.318390,136.000000 53.000000,136.000000 
z"/>
<path fill="#FAD74D" opacity="1.000000" stroke="none" 
	d="
M71.829811,118.119598 
	C69.622940,109.859459 67.334839,102.027184 65.459061,94.097374 
	C64.469856,89.915550 62.194607,88.315048 58.064560,88.405312 
	C51.739609,88.543549 45.404728,88.293114 39.083107,88.493294 
	C35.328094,88.612206 33.660267,87.511742 33.768372,83.425659 
	C34.147709,69.087685 31.932238,71.415871 45.887123,71.198677 
	C48.717422,71.154633 51.549370,71.149551 54.379658,71.189835 
	C57.576454,71.235321 58.573933,69.612022 57.790154,66.716995 
	C55.053108,56.607277 52.292011,46.503963 49.499889,36.409328 
	C48.813732,33.928600 47.219299,32.308331 44.524345,32.279148 
	C41.831345,32.249989 40.212452,33.800095 39.492245,36.304882 
	C37.746452,42.376526 35.826626,48.409348 34.389721,54.554333 
	C33.543106,58.174923 31.610212,58.607613 28.571228,57.813816 
	C24.867861,56.846474 21.145996,55.945900 17.416645,55.083424 
	C14.650682,54.443748 13.571548,53.228470 14.465438,50.120087 
	C17.635866,39.095322 20.616327,28.013464 23.478830,16.904297 
	C24.222237,14.019191 25.577982,12.631195 28.590479,12.647573 
	C39.081299,12.704612 49.572899,12.710613 60.063591,12.642213 
	C63.237720,12.621517 64.761101,13.989844 65.598488,17.087591 
	C74.758034,50.971245 83.988853,84.835938 93.349373,118.664543 
	C94.450645,122.644501 93.351311,123.829872 89.473526,123.627968 
	C85.819832,123.437714 82.134979,123.389526 78.488586,123.639687 
	C74.583038,123.907646 72.535225,122.233139 71.829811,118.119598 
z"/>
</svg>