<?xml version="1.0" standalone="no"?>
<!DOCTYPE svg PUBLIC "-//W3C//DTD SVG 20010904//EN"
 "http://www.w3.org/TR/2001/REC-SVG-20010904/DTD/svg10.dtd">
<svg version="1.0" xmlns="http://www.w3.org/2000/svg"
 width="512.000000pt" height="512.000000pt" viewBox="0 0 512.000000 512.000000"
 preserveAspectRatio="xMidYMid meet">

<g transform="translate(0.000000,512.000000) scale(0.100000,-0.100000)"
fill="#000000" stroke="none">
<path d="M1800 4948 c-167 -24 -364 -114 -510 -233 -113 -92 -230 -246 -281
-370 -22 -54 -26 -58 -96 -90 -279 -129 -488 -380 -571 -685 -22 -83 -26 -115
-26 -261 l-1 -165 -53 -60 c-149 -165 -246 -398 -259 -619 -28 -491 305 -941
796 -1073 84 -22 116 -26 263 -26 l167 -1 33 -31 c118 -112 288 -197 488 -246
35 -8 116 -13 220 -13 148 0 175 3 262 27 105 29 203 71 280 118 l49 31 57
-36 c90 -55 208 -103 315 -127 53 -12 97 -26 97 -31 0 -5 14 -38 32 -74 61
-124 207 -230 408 -297 41 -14 161 -47 267 -75 226 -60 310 -90 379 -136 74
-49 94 -94 94 -218 l0 -97 301 0 301 0 -4 308 c-4 270 -7 316 -25 382 -55 201
-145 362 -278 497 -42 42 -72 79 -66 81 5 2 48 23 95 47 274 140 474 386 554
684 22 84 25 116 25 251 0 127 -4 169 -21 232 -45 165 -131 328 -234 442 l-53
60 -1 165 c0 146 -4 178 -26 261 -83 306 -292 556 -573 686 -68 31 -72 35 -94
89 -37 89 -135 230 -216 311 -342 342 -897 401 -1296 137 l-37 -24 -39 24
c-215 136 -472 191 -723 155z m1210 -790 l0 -203 72 -40 c39 -22 74 -39 77
-38 3 1 82 45 174 99 93 53 172 93 176 88 11 -12 441 -760 441 -767 0 -3 -76
-49 -170 -102 l-170 -98 0 -87 0 -87 170 -98 c94 -53 170 -99 170 -102 0 -7
-430 -754 -441 -767 -4 -5 -83 35 -176 88 -92 54 -171 98 -174 99 -3 1 -38
-16 -77 -38 l-72 -40 0 -202 0 -203 -450 0 -450 0 0 203 0 202 -72 40 c-39 22
-74 39 -77 38 -3 -1 -80 -45 -171 -97 -91 -53 -168 -96 -171 -96 -6 0 -449
763 -449 773 0 2 77 48 170 102 l170 97 0 88 0 88 -170 97 c-93 54 -170 100
-170 102 0 7 431 755 441 767 4 5 84 -35 178 -89 93 -54 172 -98 176 -98 4 0
38 18 76 39 l69 39 0 203 0 202 450 0 450 0 0 -202z"/>
<path d="M2408 3904 l-3 -156 -78 -28 c-95 -35 -172 -78 -246 -139 -31 -25
-63 -51 -71 -58 -13 -10 -39 1 -145 62 -72 41 -133 75 -136 75 -6 0 -149 -242
-149 -252 0 -3 57 -38 128 -78 70 -41 129 -75 131 -76 2 -2 -4 -45 -13 -97 -9
-52 -16 -118 -16 -147 0 -29 7 -95 16 -147 9 -52 15 -95 13 -97 -2 -1 -61 -35
-131 -76 -71 -40 -128 -75 -128 -78 0 -10 143 -252 149 -252 3 0 64 34 135 75
107 61 133 72 145 62 9 -6 39 -30 66 -53 74 -62 147 -103 243 -139 l87 -33 3
-156 3 -156 149 0 149 0 3 156 3 156 78 28 c100 37 170 77 259 150 62 51 74
57 92 48 12 -6 71 -40 132 -74 61 -35 113 -64 116 -64 6 0 148 243 148 253 0
3 -57 38 -127 78 -71 40 -130 74 -132 75 -2 2 4 45 13 97 20 119 20 175 0 294
-9 52 -15 95 -13 97 2 1 61 35 132 75 70 40 127 75 127 78 0 10 -142 253 -148
253 -3 0 -55 -29 -116 -64 -61 -34 -120 -68 -132 -74 -18 -9 -30 -3 -92 48
-89 73 -159 113 -259 150 l-78 28 -3 156 -3 156 -149 0 -149 0 -3 -156z m244
-455 c87 -18 158 -58 223 -123 258 -259 118 -696 -244 -758 -141 -24 -280 21
-386 127 -178 176 -178 455 0 630 113 112 257 155 407 124z"/>
<path d="M2488 3139 c-43 -22 -78 -81 -78 -129 0 -50 35 -107 80 -130 21 -11
53 -20 70 -20 76 0 150 74 150 150 0 50 -35 107 -80 130 -49 25 -94 25 -142
-1z"/>
</g>
</svg>
