<?xml version="1.0" standalone="no"?>
<!DOCTYPE svg PUBLIC "-//W3C//DTD SVG 20010904//EN"
 "http://www.w3.org/TR/2001/REC-SVG-20010904/DTD/svg10.dtd">
<svg version="1.0" xmlns="http://www.w3.org/2000/svg"
 width="512.000000pt" height="512.000000pt" viewBox="0 0 512.000000 512.000000"
 preserveAspectRatio="xMidYMid meet">

<g transform="translate(0.000000,512.000000) scale(0.100000,-0.100000)"
fill="#000000" stroke="none">
<path d="M1615 5106 c-162 -39 -297 -176 -334 -337 -27 -115 -4 -252 59 -349
61 -95 132 -144 295 -200 640 -220 1152 -538 1607 -997 453 -456 760 -956 979
-1589 22 -64 55 -139 73 -168 153 -238 508 -264 705 -51 81 88 130 228 118
340 -3 30 -26 117 -52 192 -202 597 -498 1124 -906 1613 -124 150 -446 474
-584 589 -475 395 -969 679 -1540 886 -232 84 -312 97 -420 71z"/>
<path d="M1335 3993 c-37 -94 -124 -368 -118 -373 5 -4 33 -12 63 -19 133 -29
296 -137 390 -259 196 -254 212 -603 40 -867 -51 -78 -167 -190 -246 -238 -86
-51 -224 -95 -325 -103 -109 -8 -209 8 -322 53 -49 19 -90 33 -92 31 -13 -14
-725 -2048 -725 -2071 0 -47 38 -104 85 -127 53 -25 67 -25 151 4 105 36 817
297 831 305 9 5 6 17 -13 45 -81 118 -118 250 -118 416 0 115 3 133 33 219 17
52 48 122 68 155 48 79 160 195 238 246 375 244 893 98 1081 -305 34 -74 64
-197 64 -265 0 -22 5 -40 10 -40 6 0 147 47 313 104 166 57 376 130 467 161
562 193 792 273 796 278 3 3 -1 18 -10 34 -8 16 -39 101 -70 189 -198 577
-467 1017 -860 1409 -401 400 -856 686 -1525 956 -107 44 -195 79 -197 79 -1
0 -5 -8 -9 -17z m1009 -678 c42 -20 362 -342 375 -378 28 -73 -5 -157 -72
-188 -93 -42 -131 -21 -329 179 -193 193 -210 227 -169 319 33 71 122 102 195
68z m651 -901 c152 -39 280 -167 320 -319 66 -258 -101 -512 -368 -558 -291
-49 -559 222 -509 514 45 263 301 430 557 363z m-949 -300 c109 -52 109 -215
1 -265 -54 -24 -81 -24 -133 2 -31 15 -48 32 -63 63 -26 52 -26 79 -2 133 33
72 122 102 197 67z"/>
<path d="M2811 2113 c-91 -45 -105 -173 -26 -242 71 -62 177 -45 223 34 74
129 -63 274 -197 208z"/>
<path d="M1106 3322 c-3 -5 -67 -188 -142 -407 l-137 -398 22 -18 c12 -10 47
-27 77 -39 244 -91 523 53 588 305 68 259 -99 515 -366 559 -20 4 -39 3 -42
-2z"/>
<path d="M1560 1214 c-212 -57 -360 -285 -323 -499 14 -82 59 -177 109 -234
l40 -44 239 83 c132 45 296 101 365 124 l125 43 9 43 c13 59 -5 173 -37 244
-32 69 -120 163 -185 199 -101 55 -231 71 -342 41z"/>
</g>
</svg>
